<?xml version="1.0" standalone="no"?>
<!DOCTYPE svg PUBLIC "-//W3C//DTD SVG 20010904//EN"
 "http://www.w3.org/TR/2001/REC-SVG-20010904/DTD/svg10.dtd">
<svg version="1.0" xmlns="http://www.w3.org/2000/svg"
 width="700.000000pt" height="700.000000pt" viewBox="0 0 700.000000 700.000000"
 preserveAspectRatio="xMidYMid meet">
<metadata>
Created by potrace 1.14, written by Peter Selinger 2001-2017
</metadata>
<g transform="translate(0.000000,700.000000) scale(0.100000,-0.100000)"
fill="#000000" stroke="none">
<path d="M1618 6993 c-10 -2 -18 -9 -18 -14 0 -6 -4 -7 -10 -4 -5 3 -10 -1
-10 -9 0 -9 -6 -15 -12 -13 -7 1 -13 -5 -13 -13 0 -8 -5 -21 -12 -28 -16 -16
-17 -550 -1 -569 6 -7 7 -13 3 -13 -12 0 48 -55 70 -65 30 -13 94 -7 126 12
58 35 63 60 64 356 0 147 -3 267 -7 267 -5 0 -8 11 -8 25 0 14 -3 24 -7 23 -5
-2 -18 7 -31 20 -13 13 -30 21 -38 18 -8 -3 -13 -2 -10 2 5 9 -57 13 -86 5z"/>
<path d="M5276 6989 c-23 -14 -78 -69 -69 -69 3 0 1 -6 -4 -12 -5 -8 -9 -131
-8 -284 0 -212 3 -275 14 -288 7 -9 10 -16 6 -16 -5 0 5 -11 21 -25 16 -14 35
-25 42 -25 6 0 12 -4 12 -8 0 -10 45 -8 85 3 31 9 76 49 85 75 9 29 9 570 -1
570 -5 0 -9 8 -10 18 -1 45 -126 89 -173 61z"/>
<path d="M328 6753 c-16 -8 -28 -19 -28 -24 0 -6 -4 -7 -10 -4 -5 3 -10 -1
-10 -10 0 -9 -4 -14 -9 -10 -10 5 -27 -32 -23 -49 2 -4 -3 -14 -9 -22 -7 -9
-8 -14 -1 -14 6 0 9 -8 7 -17 -1 -10 2 -24 8 -30 5 -7 6 -13 2 -13 -4 0 7 -13
24 -29 17 -16 31 -33 31 -38 0 -4 13 -17 29 -28 16 -10 27 -23 25 -27 -3 -4 0
-8 6 -8 6 0 22 -11 36 -25 14 -14 22 -25 19 -25 -3 0 14 -17 37 -37 66 -58 68
-61 68 -74 0 -7 3 -9 7 -6 3 4 15 -5 25 -20 10 -16 18 -24 18 -20 0 4 6 2 14
-5 8 -7 12 -16 9 -20 -2 -5 1 -8 7 -8 13 0 100 -90 100 -103 0 -6 3 -8 6 -4 8
8 34 -18 34 -34 0 -7 2 -10 5 -7 7 7 95 -80 95 -94 0 -6 3 -8 7 -5 3 4 15 -5
25 -20 10 -16 18 -24 18 -19 0 5 8 -1 19 -12 18 -22 91 -58 91 -46 0 4 8 0 17
-7 11 -10 14 -10 9 -1 -5 8 1 12 18 12 14 0 26 5 26 11 0 5 4 8 9 4 16 -9 59
58 64 100 5 47 -20 103 -57 133 -14 11 -22 22 -19 26 3 3 2 6 -4 6 -12 0 -283
269 -283 281 0 5 -4 9 -10 9 -14 0 -50 37 -50 52 0 6 -2 9 -5 6 -7 -6 -75 60
-75 73 0 5 -7 9 -15 9 -8 0 -15 7 -15 15 0 8 -4 15 -8 15 -12 0 -122 109 -122
121 0 6 -4 8 -8 5 -5 -3 -14 4 -22 14 -8 10 -17 17 -22 14 -4 -3 -8 -1 -8 4 0
5 -10 8 -22 7 -13 -1 -30 1 -38 5 -8 3 -27 0 -42 -7z"/>
<path d="M6620 6764 c0 -5 -12 -10 -26 -11 -15 0 -29 -5 -33 -11 -3 -5 -16
-13 -29 -17 -13 -4 -21 -9 -19 -12 6 -6 -41 -53 -53 -53 -6 0 -10 -4 -10 -10
0 -14 -37 -50 -44 -42 -3 3 -6 -2 -6 -11 0 -9 -7 -17 -15 -17 -8 0 -15 -4 -15
-10 0 -5 -9 -19 -20 -30 -11 -11 -20 -17 -20 -12 0 4 -8 -5 -18 -21 -10 -15
-22 -24 -25 -20 -4 3 -7 -1 -7 -11 0 -11 -4 -14 -12 -10 -8 5 -9 2 -5 -10 4
-9 3 -15 -2 -12 -11 7 -33 -19 -24 -28 4 -4 -1 -4 -11 0 -14 5 -17 4 -12 -4 4
-8 1 -12 -10 -12 -10 0 -15 -2 -12 -5 7 -7 -65 -83 -74 -78 -5 2 -8 0 -8 -6 0
-14 -48 -61 -62 -61 -6 0 -8 -3 -5 -6 8 -8 -31 -44 -46 -44 -6 0 -8 -3 -4 -6
7 -7 -29 -44 -43 -44 -5 0 -10 -4 -10 -10 0 -12 -47 -59 -53 -53 -3 2 -8 -6
-12 -19 -4 -13 -12 -25 -16 -28 -9 -6 -15 -85 -8 -110 6 -22 69 -80 88 -81 9
0 25 -2 35 -4 28 -5 94 24 115 51 10 13 21 20 25 17 3 -3 6 0 6 7 0 14 46 60
61 60 5 0 9 5 9 10 0 6 9 19 20 30 11 11 20 17 20 13 0 -5 8 4 18 20 10 15 22
24 25 20 4 -3 7 -2 7 4 0 9 37 49 82 89 7 6 20 21 28 33 8 11 20 21 27 21 7 0
13 5 13 10 0 6 9 19 20 30 11 11 20 17 20 13 0 -5 8 4 18 20 10 15 22 24 25
20 4 -3 7 -2 7 4 0 14 68 82 74 75 3 -3 6 -1 6 5 0 6 16 27 36 46 20 19 42 40
48 46 6 7 23 24 38 40 15 15 29 38 31 52 3 13 6 29 8 34 2 6 -3 26 -10 45 -8
19 -14 38 -15 42 -2 12 -73 58 -80 51 -3 -3 -12 0 -21 7 -8 7 -15 9 -15 4z"/>
<path d="M4265 6260 c-11 -4 -26 -5 -32 -3 -7 3 -13 0 -13 -5 0 -6 -11 -9 -25
-6 -14 2 -25 0 -25 -6 0 -5 -7 -10 -15 -10 -21 0 -104 -43 -134 -69 -13 -12
-28 -21 -33 -21 -5 0 -6 -4 -3 -10 3 -5 3 -10 -2 -10 -13 0 -73 -57 -67 -63 3
-3 -4 -8 -15 -12 -12 -3 -21 -13 -21 -21 0 -8 -4 -12 -10 -9 -5 3 -10 1 -10
-5 0 -6 -7 -18 -15 -26 -8 -9 -15 -13 -15 -10 0 11 -36 -30 -43 -49 -4 -10
-10 -15 -13 -12 -7 7 -54 -38 -54 -52 0 -7 -4 -9 -10 -6 -5 3 -10 1 -10 -4 0
-12 -36 -51 -42 -47 -3 3 -52 -46 -55 -57 -2 -4 -5 -6 -7 -4 -2 1 -14 -11 -27
-28 -30 -40 -44 -54 -35 -35 4 8 -2 4 -14 -10 l-21 -24 -50 52 c-27 29 -54 52
-60 52 -5 0 -8 4 -4 9 3 5 -4 12 -15 16 -11 4 -19 9 -17 13 2 4 -4 15 -15 25
-10 9 -18 14 -19 10 0 -5 -4 2 -10 15 -5 13 -12 21 -17 18 -4 -2 -17 9 -27 25
-11 16 -25 29 -32 29 -6 0 -14 8 -17 18 -4 10 -22 24 -41 32 -19 7 -32 17 -29
21 4 8 -35 25 -48 21 -5 -1 -8 3 -8 10 0 6 -3 8 -6 5 -4 -3 -15 -2 -25 3 -10
6 -29 11 -43 12 -15 1 -26 5 -26 9 0 3 -18 5 -40 5 -22 -1 -40 3 -40 9 0 7 -3
7 -8 0 -4 -5 -27 -10 -52 -10 -25 0 -56 -5 -69 -12 -14 -7 -28 -10 -33 -7 -4
3 -8 0 -8 -5 0 -6 -8 -11 -19 -11 -10 0 -24 -7 -31 -15 -7 -8 -16 -13 -20 -10
-4 2 -17 -7 -30 -20 -13 -13 -27 -22 -31 -19 -5 3 -9 -2 -9 -10 0 -8 -9 -18
-20 -21 -11 -3 -20 -11 -20 -16 0 -5 -8 -17 -19 -28 -18 -18 -63 -98 -76 -136
-8 -23 -15 -60 -19 -93 -2 -12 -5 -25 -9 -28 -3 -3 -3 -13 0 -22 4 -10 3 -14
-2 -10 -4 4 -15 2 -23 -5 -13 -10 -14 -9 -7 2 6 11 4 13 -11 6 -10 -4 -30 -9
-44 -10 -14 -1 -26 -4 -27 -5 -2 -1 -7 -3 -11 -4 -24 -3 -122 -51 -122 -58 0
-5 -4 -6 -10 -3 -5 3 -10 2 -10 -3 0 -5 -11 -15 -25 -22 -13 -7 -23 -16 -21
-19 4 -9 -31 -40 -38 -33 -3 3 -6 -2 -6 -11 0 -9 -4 -17 -8 -17 -12 0 -76
-132 -76 -157 0 -13 -4 -23 -9 -23 -5 0 -7 -6 -4 -12 2 -7 0 -23 -4 -35 -4
-12 -5 -23 -1 -25 4 -2 0 -11 -10 -20 -10 -10 -18 -13 -18 -7 0 5 -6 7 -12 3
-7 -5 -19 -9 -28 -10 -38 -6 -67 -13 -95 -23 -16 -6 -38 -14 -47 -17 -10 -4
-18 -11 -18 -17 0 -6 -3 -8 -6 -4 -6 6 -19 -2 -60 -40 -14 -13 -29 -23 -34
-23 -6 0 -10 -8 -10 -17 0 -9 -3 -13 -6 -10 -6 6 -78 -98 -79 -113 -1 -3 -7
-16 -14 -29 -9 -16 -9 -21 -1 -16 14 9 -9 -36 -25 -47 -6 -5 -5 -8 3 -8 7 0
10 -5 7 -11 -4 -6 -8 -25 -9 -43 -1 -18 -6 -38 -11 -46 -5 -8 -4 -11 2 -7 7 4
11 -9 10 -36 0 -23 5 -52 12 -65 6 -12 9 -22 5 -22 -3 0 -1 -7 6 -15 7 -9 10
-18 7 -22 -4 -3 1 -12 11 -20 10 -9 11 -11 2 -7 -13 7 -13 5 -2 -8 9 -11 10
-18 2 -23 -5 -3 -10 -3 -10 1 0 4 -8 0 -17 -9 -10 -8 -22 -16 -28 -18 -35 -7
-58 -23 -124 -90 -25 -26 -55 -64 -66 -85 -11 -22 -24 -42 -30 -46 -5 -4 -6
-8 -1 -8 5 0 3 -7 -4 -15 -7 -8 -10 -15 -7 -15 2 0 -3 -29 -13 -65 -9 -35 -14
-62 -10 -60 4 3 8 -6 8 -20 0 -14 -5 -22 -11 -18 -6 4 -7 1 -1 -8 5 -8 9 -23
10 -34 1 -21 12 -70 21 -95 4 -8 5 -18 5 -22 -1 -5 3 -8 9 -8 6 0 9 -7 5 -15
-3 -8 -1 -15 4 -15 6 0 10 -7 10 -15 0 -8 5 -15 10 -15 6 0 10 -7 10 -15 0 -8
5 -15 10 -15 6 0 10 -4 10 -9 0 -6 52 -62 116 -127 86 -86 112 -119 102 -125
-7 -5 -8 -9 -3 -9 6 -1 0 -5 -13 -11 -13 -5 -20 -13 -17 -19 3 -5 1 -10 -5
-10 -14 0 -169 -158 -162 -165 3 -3 1 -5 -5 -5 -12 0 -207 -190 -195 -191 4 0
-3 -4 -16 -10 -13 -5 -20 -13 -17 -19 3 -5 3 -10 -2 -10 -4 0 -34 -25 -67 -55
-32 -30 -55 -55 -51 -55 4 0 -3 -8 -16 -19 -37 -29 -151 -141 -143 -141 4 0
-6 -10 -22 -22 -45 -36 -294 -288 -294 -299 0 -5 -3 -8 -7 -7 -11 4 -132 -120
-125 -127 3 -3 1 -5 -4 -5 -5 0 -34 -22 -63 -50 -29 -27 -50 -50 -45 -50 4 0
-6 -10 -22 -22 -49 -37 -258 -254 -260 -270 -1 -5 -2 -9 -4 -10 -1 -2 -4 -16
-6 -31 -4 -22 -2 -27 8 -21 11 6 11 5 0 -8 -9 -11 -10 -18 -2 -23 6 -3 8 -11
5 -16 -4 -5 -2 -9 3 -9 5 0 15 -11 22 -25 7 -14 15 -23 18 -20 2 2 11 -2 18
-10 8 -8 23 -12 34 -10 11 2 20 0 20 -5 0 -6 10 -6 26 0 33 13 34 13 34 -5 0
-8 5 -15 11 -15 5 0 8 -4 4 -9 -3 -5 -1 -12 5 -16 6 -4 8 -10 5 -15 -3 -5 -1
-11 5 -15 5 -3 10 -17 10 -29 0 -13 7 -29 15 -36 8 -6 14 -15 13 -18 -2 -17
16 -72 24 -72 5 0 8 -6 7 -12 -2 -12 3 -26 40 -108 8 -19 14 -39 13 -43 -1 -5
4 -20 12 -35 8 -15 20 -43 26 -62 11 -32 18 -50 41 -105 5 -11 10 -27 11 -35
2 -8 6 -17 10 -20 4 -3 9 -15 11 -25 2 -11 11 -37 20 -59 9 -21 17 -45 17 -52
0 -8 4 -14 10 -14 5 0 7 -7 4 -15 -3 -8 0 -17 7 -20 8 -3 15 -19 16 -37 1 -17
6 -34 10 -37 9 -7 34 -70 36 -88 0 -7 5 -13 10 -13 6 0 8 -3 5 -6 -3 -3 5 -32
18 -65 14 -33 21 -65 18 -71 -4 -7 -3 -8 4 -4 11 6 16 -6 13 -26 0 -5 4 -8 10
-8 5 0 7 -4 4 -10 -3 -5 1 -20 10 -33 8 -13 12 -27 8 -30 -3 -4 -2 -7 4 -7 5
0 10 -7 11 -15 1 -8 3 -22 4 -30 1 -8 5 -15 10 -15 4 0 8 -11 8 -25 0 -14 5
-25 11 -25 6 0 9 -7 5 -15 -3 -8 0 -15 6 -15 6 0 -5 -16 -26 -36 -20 -19 -33
-40 -30 -46 5 -7 2 -9 -7 -6 -12 5 -15 -4 -13 -46 1 -28 3 -58 5 -66 6 -23 58
-69 86 -76 34 -9 104 2 114 18 5 7 9 10 9 6 0 -11 60 50 60 62 0 6 3 10 8 7 9
-4 111 100 104 107 -3 4 0 6 6 6 15 0 161 147 154 155 -3 3 0 5 7 5 14 0 71
56 71 70 0 6 3 9 8 8 10 -4 131 119 124 126 -3 3 0 6 6 6 17 0 52 32 46 42 -3
4 -1 8 5 8 13 0 380 368 373 375 -3 3 0 5 6 5 14 0 218 202 214 212 -1 5 2 8
6 8 12 0 172 158 172 170 0 6 3 9 8 8 9 -3 297 285 294 295 -1 4 2 7 7 7 13 0
100 88 93 94 -3 3 0 6 6 6 13 0 152 139 152 152 0 4 3 7 8 6 4 -2 60 51 125
116 64 65 117 114 117 110 0 -5 5 -1 11 9 6 9 14 15 20 12 5 -4 9 -2 9 3 0 6
11 13 26 16 22 6 69 -16 94 -44 3 -3 21 -14 40 -24 19 -11 37 -22 40 -25 7 -8
79 -53 112 -70 15 -8 26 -17 23 -20 -2 -4 11 -13 28 -21 18 -7 34 -17 37 -20
9 -13 152 -82 157 -76 3 3 12 -2 20 -10 8 -8 19 -12 24 -9 5 4 9 1 9 -6 0 -7
3 -10 6 -6 3 3 18 1 33 -5 14 -5 37 -12 51 -14 46 -7 55 -9 69 -18 11 -7 12
-6 6 5 -7 11 -6 12 6 3 8 -6 27 -11 42 -10 16 1 30 -1 32 -4 4 -6 181 -3 230
4 27 3 40 -6 127 -94 53 -54 99 -96 102 -92 3 3 6 0 6 -7 0 -15 81 -96 93 -93
4 1 7 -2 7 -7 0 -12 140 -151 151 -151 5 0 8 -4 6 -9 -2 -10 101 -111 114
-111 5 0 8 -3 7 -7 -3 -10 220 -233 233 -233 5 0 8 -3 6 -8 -3 -9 145 -157
156 -154 4 1 7 -5 7 -13 0 -9 10 -20 23 -25 12 -5 19 -9 15 -9 -9 -1 223 -231
233 -231 5 0 8 -4 6 -9 -2 -10 101 -111 114 -111 5 0 8 -3 7 -7 -3 -11 349
-362 356 -355 3 3 6 0 6 -6 0 -15 90 -106 122 -124 30 -17 109 -18 126 -1 7 7
20 13 28 13 8 0 14 9 14 20 0 11 4 20 8 20 26 0 35 106 10 121 -5 3 -9 9 -9
13 3 20 0 26 -9 21 -5 -3 -10 0 -10 8 0 8 -7 18 -15 21 -16 6 -19 76 -3 76 4
0 8 8 8 18 0 9 7 30 15 46 8 15 15 35 15 42 0 8 4 14 9 14 6 0 8 9 6 20 -2 11
1 20 7 20 5 0 8 7 4 15 -3 8 -1 15 4 15 6 0 10 9 10 20 0 11 4 20 10 20 5 0 7
7 4 15 -4 8 -1 15 5 15 6 0 10 3 10 8 -1 4 0 10 1 15 1 4 3 10 5 15 1 4 7 20
14 36 6 16 13 36 14 45 2 9 9 27 17 41 8 14 13 31 12 38 -2 6 3 12 9 12 7 0 9
3 6 6 -3 4 -2 15 4 26 6 11 12 29 15 41 2 12 8 23 14 25 5 2 10 8 10 13 0 6
-6 7 -12 3 -7 -4 -5 2 5 13 9 11 17 26 17 35 0 8 3 18 8 22 4 4 7 11 8 14 1 7
3 14 27 77 7 17 12 32 13 35 1 3 7 21 15 40 7 19 12 38 11 43 -1 4 2 7 7 7 7
0 17 30 21 68 1 4 9 16 18 26 9 11 12 16 6 13 -7 -4 -3 10 7 30 10 20 16 40
13 44 -3 5 0 9 5 9 6 0 11 9 11 20 0 11 4 20 10 20 5 0 7 7 4 15 -4 8 -1 15 5
15 6 0 8 6 5 13 -3 8 2 20 11 27 8 7 15 23 15 36 0 12 5 26 10 29 6 4 8 10 5
15 -3 5 -1 11 5 15 5 3 10 14 10 23 0 9 7 30 15 46 8 15 15 33 15 40 0 6 7 24
15 40 9 16 16 39 17 52 1 12 6 20 10 18 8 -5 12 11 9 30 -1 4 3 14 9 20 5 7 7
16 3 19 -3 4 -1 7 5 7 7 0 12 9 12 20 0 16 4 18 23 11 30 -11 63 -5 103 19 30
19 49 45 46 63 -1 4 3 7 8 7 6 0 10 11 10 24 0 76 4 72 -532 608 -486 486
-519 522 -522 557 -1 21 -6 43 -11 51 -5 8 -4 11 2 7 6 -4 10 6 9 23 -1 17 -3
30 -6 30 -3 0 -7 15 -8 33 -2 51 -9 91 -16 109 -4 9 -5 22 -1 28 3 5 2 10 -4
10 -5 0 -8 11 -6 25 1 14 -2 25 -6 25 -5 0 -9 8 -9 18 0 9 -11 46 -24 82 -13
36 -24 68 -25 73 0 4 -12 30 -26 59 -14 28 -25 55 -25 60 0 4 60 68 133 141
140 142 177 184 177 203 0 6 7 17 15 24 8 7 12 16 9 21 -3 5 -1 9 5 9 5 0 8 8
7 18 -2 9 0 19 4 22 5 3 10 16 11 30 2 14 9 28 14 32 6 5 5 8 -4 8 -10 0 -11
3 -2 14 8 10 9 16 1 21 -6 3 -7 11 -3 18 11 17 10 57 -2 57 -5 0 -3 5 5 10 8
5 10 10 4 10 -6 0 -12 10 -12 23 -1 12 -3 31 -6 42 -2 11 -5 24 -5 28 -1 5 -6
5 -13 1 -7 -4 -8 -3 -4 4 6 10 -12 52 -47 107 -20 32 -84 94 -119 115 -33 20
-98 53 -108 55 -3 0 -9 3 -15 6 -5 4 -18 5 -27 4 -10 -2 -18 0 -18 4 0 5 -18
8 -40 8 -22 0 -42 2 -44 4 -3 2 -7 26 -11 53 -3 27 -11 56 -18 65 -10 12 -9
13 2 6 11 -6 12 -5 5 6 -4 8 -9 20 -11 28 -1 8 -8 18 -15 22 -7 5 -9 9 -5 9
11 0 -23 61 -46 82 -10 9 -17 19 -15 22 3 5 -100 101 -111 102 -12 1 -66 29
-72 37 -3 4 -10 7 -15 6 -5 -1 -12 0 -16 1 -5 1 -12 4 -18 5 -5 1 -11 3 -12 4
-5 4 -51 11 -82 14 -27 2 -30 6 -33 46 -2 24 -8 51 -13 61 -13 25 -13 33 2 24
7 -4 1 8 -12 26 -13 19 -18 30 -9 26 7 -4 6 -1 -3 7 -10 8 -18 22 -18 31 0 9
-5 16 -12 16 -6 0 -8 3 -5 7 4 3 -7 19 -23 35 -16 15 -31 31 -32 36 -5 16 -33
42 -46 42 -7 0 -10 5 -7 10 3 6 -1 10 -9 10 -9 0 -16 5 -16 10 0 6 -7 10 -15
10 -8 0 -15 5 -15 11 0 6 -7 9 -15 5 -8 -3 -15 0 -15 6 0 6 -3 8 -7 5 -3 -4
-13 -1 -21 5 -8 7 -19 13 -26 14 -6 1 -24 5 -41 9 -16 3 -46 8 -65 9 -34 2
-35 4 -42 52 -3 27 -8 56 -10 64 -19 65 -32 100 -40 100 -4 0 -8 7 -8 15 0 8
-5 15 -11 15 -5 0 -8 4 -5 9 5 8 -70 90 -110 121 -11 8 -28 22 -39 30 -17 13
-18 13 -11 0 4 -9 1 -8 -7 3 -8 9 -17 17 -20 17 -3 0 -18 5 -34 12 -30 12 -43
15 -113 23 -25 3 -52 7 -60 9 -8 1 -24 0 -35 -4z"/>
<path d="M80 5457 c0 -10 -4 -16 -8 -13 -24 15 -70 -59 -67 -109 3 -49 14 -85
27 -85 5 0 7 -4 4 -8 -3 -5 12 -17 32 -27 33 -17 65 -19 301 -19 262 -1 321 5
321 34 0 6 5 8 10 5 11 -7 42 56 44 90 3 31 -15 77 -41 105 -13 14 -23 20 -23
15 0 -6 -5 -3 -10 5 -8 13 -53 15 -290 17 -215 2 -280 0 -280 -10 0 -8 -4 -7
-10 3 -8 13 -10 12 -10 -3z"/>
<path d="M6336 5455 c-7 -8 -16 -12 -19 -9 -5 5 -51 -54 -53 -68 -1 -5 -3 -9
-4 -10 -7 -8 -6 -60 2 -64 4 -3 6 -10 3 -15 -7 -10 33 -66 42 -61 3 2 11 -5
19 -15 7 -10 14 -14 14 -9 0 5 8 2 17 -5 15 -12 16 -12 8 1 -7 12 -6 13 6 4
23 -17 522 -12 543 5 9 7 16 10 16 5 0 -5 14 6 30 25 43 49 53 120 20 149 -13
12 -13 13 0 6 13 -7 13 -6 0 12 -18 23 -49 47 -70 53 -8 3 -138 6 -287 8 -223
2 -275 0 -287 -12z"/>
</g>
</svg>
