<svg width="24" height="24" fill="none" xmlns="http://www.w3.org/2000/svg"><path d="M21.75 5.232a.72.72 0 0 0-.082-.321.86.86 0 0 0-.078-.123.705.705 0 0 0-.025-.03l-.012-.015-.011-.01a.74.74 0 0 0-.114-.098l-.028-.019-.034-.02-.03-.016-.034-.016-.034-.014-.034-.012-.037-.01-.033-.01a.773.773 0 0 0-.148-.017L21 4.5H2.985a.753.753 0 0 0-.113.012l-.036.006-.035.01-.035.01-.035.012-.032.013-.036.018c-.01.004-.02.01-.029.015a.75.75 0 0 0-.035.02l-.027.018a.71.71 0 0 0-.114.098l-.01.011-.013.015a.783.783 0 0 0-.146.255.777.777 0 0 0-.038.22l-.001.017V18a1.502 1.502 0 0 0 1.5 1.5h16.5a1.502 1.502 0 0 0 1.5-1.5V5.232Zm-18 1.723L9.254 12 3.75 17.045V6.955ZM4.928 18l5.436-4.982 1.13 1.035a.75.75 0 0 0 1.013 0l1.13-1.036L19.071 18H4.928Zm9.818-6 5.504-5.045v10.09L14.747 12Z" fill="#4163BB"/></svg>