<svg width="24" height="24" fill="none" xmlns="http://www.w3.org/2000/svg"><path d="m4.5 3.75 15 16.5m-4.977-5.475a3.75 3.75 0 0 1-5.046-5.55" stroke="silver" stroke-width="2" stroke-linecap="round" stroke-linejoin="round"/><path d="M6.937 6.43C3.115 8.367 1.5 12 1.5 12s3 6.75 10.5 6.75a11.088 11.088 0 0 0 5.062-1.181m2.495-1.716C21.601 14.023 22.5 12 22.5 12s-3-6.75-10.5-6.75a11.75 11.75 0 0 0-1.939.157" stroke="silver" stroke-width="2" stroke-linecap="round" stroke-linejoin="round"/><path d="M12.706 8.316a3.752 3.752 0 0 1 3.028 3.331" stroke="silver" stroke-width="2" stroke-linecap="round" stroke-linejoin="round"/></svg>