<svg width="18" height="19" fill="none" xmlns="http://www.w3.org/2000/svg"><path d="M11.09 8.455a.563.563 0 0 1 .147-.782l4.758-3.256a.562.562 0 0 1 .635.929L11.873 8.6a.563.563 0 0 1-.782-.146Zm5.687 5.981a.562.562 0 0 1-.782.147l-6.432-4.401-2.99 2.044a2.534 2.534 0 1 1-.635-.927L8.566 9.5 5.937 7.701a2.52 2.52 0 1 1 .637-.927l10.056 6.88a.563.563 0 0 1 .147.782Zm-11.152-1.28a1.406 1.406 0 1 0-2.812 0 1.406 1.406 0 0 0 2.812 0Zm-.412-6.318a1.406 1.406 0 1 0-1.989 0 1.397 1.397 0 0 0 1.99 0Z" fill="#4163BB"/></svg>