<svg width="18" height="19" fill="none" xmlns="http://www.w3.org/2000/svg"><path d="M12.938 7.307v-.62a2.253 2.253 0 0 0-2.25-2.25H9.562V2.75h2.25a.563.563 0 0 1 .563.563.563.563 0 0 0 1.125 0 1.69 1.69 0 0 0-1.688-1.688h-4.5a.563.563 0 1 0 0 1.125h1.125v1.688H7.313a2.253 2.253 0 0 0-2.25 2.25v.619a2.817 2.817 0 0 0-2.25 2.755v5.626a1.126 1.126 0 0 0 1.124 1.124h10.126a1.126 1.126 0 0 0 1.124-1.125v-5.624a2.817 2.817 0 0 0-2.25-2.756ZM7.311 5.562h3.375a1.126 1.126 0 0 1 1.126 1.125v.563H6.186v-.563a1.126 1.126 0 0 1 1.125-1.125Z" fill="#4163BB"/></svg>