<svg width="18" height="19" fill="none" xmlns="http://www.w3.org/2000/svg"><path d="m16.34 7.501.002.005a.673.673 0 0 1-.208.73l-3.18 2.646-.241.2.075.304 1.01 4.084.001.006a.67.67 0 0 1-.256.712l-.002.001a.635.635 0 0 1-.716.022h-.002l-3.546-2.247-.012-.008-.013-.007a.518.518 0 0 0-.54.021l-3.285 2.082a.754.754 0 0 1-.849-.026v-.001a.792.792 0 0 1-.303-.841v-.003l.95-3.738.078-.303-.239-.202-3.195-2.7-.002-.003a.673.673 0 0 1-.208-.729l.001-.005a.651.651 0 0 1 .578-.452l4.153-.27.314-.02.118-.293 1.572-3.923.002-.005a.648.648 0 0 1 .602-.413.648.648 0 0 1 .605.413l.001.004 1.549 3.9.116.293.314.022 4.176.292h.002a.651.651 0 0 1 .578.452Z" stroke="#FFD600"/></svg>